<svg xmlns="http://www.w3.org/2000/svg" viewBox="0 0 65.7 69.6" fill="#fff"><path class="st0" d="M60.4 7.4h-6.2V6.2C54.2 2.8 51.4 0 48 0s-6.2 2.8-6.2 6.2v8c0 1.2 1 2.2 2.2 2.2 1.2 0 2.2-1 2.2-2.2v-8c0-1 .8-1.8 1.8-1.8s1.8.8 1.8 1.8v8c0 1.2 1 2.2 2.2 2.2 1.2 0 2.2-1 2.2-2.2v-2.4h6.2c.5 0 .9.4.9.9v13.1H4.4V12.7c0-.5.3-.9.7-.9H8V7.4H5.1C2.3 7.4 0 9.8 0 12.7v51.6c0 2.9 2.4 5.3 5.3 5.3h55.1c2.9 0 5.3-2.4 5.3-5.3V12.7c0-2.9-2.4-5.3-5.3-5.3zm.9 56.9c0 .5-.4.9-.9.9H5.3c-.5 0-.9-.4-.9-.9V30.2h56.9v34.1z"/><path class="st0" d="M12.9 16.5c1.2 0 2.2-1 2.2-2.2v-8c0-1 .8-1.8 1.8-1.8s1.8.8 1.8 1.8v8c0 1.2 1 2.2 2.2 2.2 1.2 0 2.2-1 2.2-2.2v-2.4h15.6V7.4H23.2V6.2C23.2 2.8 20.4 0 17 0c-3.4 0-6.2 2.8-6.2 6.2v8c-.1 1.3.9 2.3 2.1 2.3zM13.3 38.5H19v5.7h-5.7zM24.4 38.5h5.7v5.7h-5.7zM35.6 38.5h5.7v5.7h-5.7zM46.8 38.5h5.7v5.7h-5.7zM13.3 51.2H19v5.7h-5.7zM24.4 51.2h5.7v5.7h-5.7zM35.6 51.2h5.7v5.7h-5.7zM46.8 51.2h5.7v5.7h-5.7z"/></svg>