<?xml version="1.0" encoding="utf-8"?>
<!-- Generator: Adobe Illustrator 19.1.1, SVG Export Plug-In . SVG Version: 6.00 Build 0)  -->
<svg version="1.1" id="Layer_2" xmlns="http://www.w3.org/2000/svg" xmlns:xlink="http://www.w3.org/1999/xlink" x="0px" y="0px"
	 viewBox="0 0 78 106.8" style="enable-background:new 0 0 78 106.8; fill: #fff;" xml:space="preserve">
<g>
	<g>
		<path class="st0" d="M66.6,15.6h-3.5v8.3h1.1c4.2,0,5.9,3.4,5.9,7.5v58.6c0,4.1-1.7,7.5-5.9,7.5H13.7c-4.2,0-5.9-3.4-5.9-7.5V31.5
			c0-4.1,1.8-7.5,5.9-7.5h1.4v-8.3h-3.8C5.1,15.6,0,20.7,0,26.9v68.5c0,6.2,5.1,11.3,11.3,11.3h55.3c6.2,0,11.3-5.1,11.3-11.3V26.9
			C78,20.7,72.9,15.6,66.6,15.6z"/>
		<path class="st0" d="M57.7,57H20.3c-2.1,0-3.8,0.9-3.8,3v2.6c0,2.1,1.7,2.9,3.8,2.9h37.4c2.1,0,3.8-0.9,3.8-2.9v-2.6
			C61.5,57.9,59.8,57,57.7,57z"/>
		<path class="st0" d="M57.7,40H20.3c-2.1,0-3.8,0.9-3.8,3v2.6c0,2.1,1.7,3,3.8,3h37.4c2.1,0,3.8-0.9,3.8-3V43
			C61.5,40.9,59.8,40,57.7,40z"/>
		<path class="st0" d="M57.7,74H20.3c-2.1,0-3.8,0.9-3.8,2.9v2.6c0,2.1,1.7,3,3.8,3h37.4c2.1,0,3.8-0.9,3.8-3v-2.6
			C61.5,74.8,59.8,74,57.7,74z"/>
	</g>
	<path class="st0" d="M46,15.2c-0.5,0-0.6-0.3-0.4-0.7c0,0,2-3.1,2-5.5c0-5-4-9-9-9c-5,0-9,4-9,9c0,2.4,2,5.5,2,5.5
		c0.2,0.4,0.1,0.7-0.4,0.7H18.5c-0.5,0-0.8,0.4-0.8,0.8v8.1c0,0.5,0.4,0.8,0.8,0.8h41c0.5,0,0.8-0.4,0.8-0.8V16
		c0-0.5-0.4-0.8-0.8-0.8H46z M38.7,3.3c3.1,0,5.7,2.5,5.7,5.7c0,3.1-2.5,5.7-5.7,5.7c-3.1,0-5.7-2.5-5.7-5.7
		C33,5.9,35.5,3.3,38.7,3.3L38.7,3.3z"/>
</g>
</svg>
