<?xml version="1.0" encoding="utf-8"?>
<!-- Generator: Adobe Illustrator 19.1.1, SVG Export Plug-In . SVG Version: 6.00 Build 0)  -->
<svg version="1.1" id="Õ_xBA__x2264__x201E__x5F_1"
	 xmlns="http://www.w3.org/2000/svg" xmlns:xlink="http://www.w3.org/1999/xlink" x="0px" y="0px" viewBox="0 0 62.2 77.3"
	 style="enable-background:new 0 0 62.2 77.3; fill: #fff;" xml:space="preserve">
<g>
	<path class="st0" d="M44.8,16.3V0H11.2v16.3C4.4,21.4,0,29.5,0,38.6C0,47.7,4.4,55.8,11.2,61v16.3h33.7V61
		C51.6,55.8,56,47.7,56,38.6C56,29.5,51.6,21.4,44.8,16.3z M15.6,4.4h24.9v9.1c-3.8-1.9-8-2.9-12.4-2.9c-4.5,0-8.7,1.1-12.4,2.9V4.4
		z M40.4,72.9H15.6v-9.2c3.8,1.9,8,2.9,12.4,2.9c4.5,0,8.7-1.1,12.4-2.9V72.9z M28,62.2c-13,0-23.6-10.6-23.6-23.6
		C4.4,25.6,15,15,28,15c13,0,23.6,10.6,23.6,23.6C51.6,51.6,41,62.2,28,62.2z"/>
	<rect x="57.8" y="30.1" class="st0" width="4.4" height="18.1"/>
	<path class="st0" d="M37.4,25.5c-0.4-0.1-0.8-0.1-1.2-0.1c-3.6,0-6.4,2.5-8.2,4.6c-1.7-2.1-4.5-4.6-8.2-4.6c-0.4,0-0.8,0-1.2,0.1
		c-5.8,0.9-9.6,5.7-8.9,11.4C11.1,48.9,26.3,57.1,27,57.5c0.3,0.2,0.7,0.3,1,0.3c0.4,0,0.7-0.1,1-0.3c0.6-0.3,15.9-8.6,17.3-20.6
		C46.9,31.2,43.2,26.4,37.4,25.5z M41.9,36.4C41,44.5,31.2,51,28,53c-3.2-2-13-8.5-13.9-16.6c-0.4-3.3,1.8-6,5.2-6.6
		c0.2,0,0.4,0,0.5,0c2.9,0,5.5,3.7,6.2,5.2c0.4,0.7,1.1,1.2,1.9,1.2c0,0,0,0,0,0c0.8,0,1.6-0.5,1.9-1.2c0.8-1.4,3.3-5.2,6.2-5.2
		c0.2,0,0.4,0,0.5,0C40.2,30.4,42.3,33.1,41.9,36.4z"/>
</g>
</svg>
