<svg xmlns="http://www.w3.org/2000/svg" viewBox="0 0 204.4 208" fill="#afd5b1"><path d="M105.4 44.3c-1.8-1.6-4.6-1.6-6.4 0l-80 73.3c-1.8 1.6-3.2 4.9-3.2 7.2v78.9c0 2.4 2 4.3 4.4 4.3h51.7c2.4 0 4.3-1.9 4.3-4.3v-51.6c0-2.4 2-4.3 4.4-4.3h43.3c2.4 0 4.3 1.9 4.3 4.3v51.6c0 2.4 2 4.3 4.4 4.3h51.7c2.4 0 4.3-1.9 4.3-4.3v-78.9c0-2.4-1.4-5.6-3.2-7.2l-80-73.3z"/><path d="M202.9 93.1L105.6 1.3c-1.9-1.8-4.8-1.8-6.7 0L47.4 49.8v-45c0-2.6-2.2-4.8-4.8-4.8-2.7 0-4.8 2.1-4.8 4.8V59L1.5 93.1c-1.9 1.8-2 4.9-.2 6.8 1 1 2.2 1.5 3.5 1.5 1.2 0 2.4-.4 3.3-1.3l94-88.6 94 88.6c1.9 1.8 5 1.8 6.9-.2 1.9-1.9 1.9-5-.1-6.8z"/></svg>