<?xml version="1.0" encoding="utf-8"?>
<!-- Generator: Adobe Illustrator 19.1.1, SVG Export Plug-In . SVG Version: 6.00 Build 0)  -->
<svg version="1.1" id="Õ_xBA__x2264__x201E__x5F_1"
	 xmlns="http://www.w3.org/2000/svg" xmlns:xlink="http://www.w3.org/1999/xlink" x="0px" y="0px" viewBox="0 0 83.3 60.1"
	 style="enable-background:new 0 0 83.3 60.1; fill: #fff;" xml:space="preserve">
<g>
	<path class="st0" d="M82.3,56c-6.8-4.9-15.7-8.3-25.7-10.1c1.6-2.7,2.6-5.8,2.6-9.2c0-9.7-7.9-17.6-17.6-17.6
		c-9.7,0-17.6,7.9-17.6,17.6c0,3.4,1,6.5,2.6,9.2C16.7,47.6,7.7,51.1,1,56c-1,0.7-1.3,2.2-0.5,3.2c0.7,1,2.2,1.3,3.2,0.5
		c9.3-6.7,23.1-10.5,38-10.5c14.9,0,28.8,3.8,38,10.5c0.4,0.3,0.9,0.4,1.3,0.4c0.7,0,1.4-0.3,1.9-1C83.6,58.2,83.4,56.7,82.3,56z
		 M51.5,45.2c-3.2-0.4-6.5-0.6-9.8-0.6c-3.3,0-6.6,0.2-9.8,0.6c-1.9-2.3-3.1-5.2-3.1-8.4c0-7.2,5.8-13,13-13c7.2,0,13,5.8,13,13
		C54.6,40,53.4,42.9,51.5,45.2z"/>
	<path class="st0" d="M41.6,14.9c1.3,0,2.3-1,2.3-2.3V2.3c0-1.3-1-2.3-2.3-2.3s-2.3,1-2.3,2.3v10.4C39.3,13.9,40.4,14.9,41.6,14.9z"
		/>
	<path class="st0" d="M6,38.3h10.4c1.3,0,2.3-1,2.3-2.3c0-1.3-1-2.3-2.3-2.3H6c-1.3,0-2.3,1-2.3,2.3C3.7,37.2,4.7,38.3,6,38.3z"/>
	<path class="st0" d="M21.9,21.6c0.4,0.4,1,0.7,1.6,0.7s1.2-0.2,1.6-0.7c0.9-0.9,0.9-2.4,0-3.2L17.8,11c-0.9-0.9-2.4-0.9-3.2,0
		c-0.9,0.9-0.9,2.3,0,3.2L21.9,21.6z"/>
	<path class="st0" d="M64.6,36c0,1.3,1,2.3,2.3,2.3h10.4c1.3,0,2.3-1,2.3-2.3c0-1.3-1-2.3-2.3-2.3H66.9C65.6,33.7,64.6,34.7,64.6,36
		z"/>
	<path class="st0" d="M59.7,22.3c0.6,0,1.2-0.2,1.6-0.7l7.3-7.3c0.9-0.9,0.9-2.3,0-3.2c-0.9-0.9-2.4-0.9-3.2,0l-7.3,7.3
		c-0.9,0.9-0.9,2.3,0,3.2C58.5,22,59.1,22.3,59.7,22.3z"/>
</g>
</svg>
