<?xml version="1.0" encoding="utf-8"?>
<!-- Generator: Adobe Illustrator 19.1.1, SVG Export Plug-In . SVG Version: 6.00 Build 0)  -->
<svg version="1.1" id="Õ_xBA__x2264__x201E__x5F_1"
	 xmlns="http://www.w3.org/2000/svg" xmlns:xlink="http://www.w3.org/1999/xlink" x="0px" y="0px" viewBox="0 0 65.7 69.6"
	 style="enable-background:new 0 0 65.7 69.6; fill: #fff;" xml:space="preserve">
<g>
	<path class="st0" d="M60.4,7.4h-6.2V6.2C54.2,2.8,51.4,0,48,0s-6.2,2.8-6.2,6.2v8c0,1.2,1,2.2,2.2,2.2c1.2,0,2.2-1,2.2-2.2v-8
		c0-1,0.8-1.8,1.8-1.8c1,0,1.8,0.8,1.8,1.8v8c0,1.2,1,2.2,2.2,2.2c1.2,0,2.2-1,2.2-2.2v-2.4h6.2c0.5,0,0.9,0.4,0.9,0.9v13.1H4.4
		V12.7c0-0.5,0.3-0.9,0.7-0.9H8V7.4H5.1C2.3,7.4,0,9.8,0,12.7v51.6c0,2.9,2.4,5.3,5.3,5.3h55.1c2.9,0,5.3-2.4,5.3-5.3V12.7
		C65.7,9.8,63.3,7.4,60.4,7.4z M61.3,64.3c0,0.5-0.4,0.9-0.9,0.9H5.3c-0.5,0-0.9-0.4-0.9-0.9V30.2h56.9V64.3z"/>
	<path class="st0" d="M12.9,16.5c1.2,0,2.2-1,2.2-2.2v-8c0-1,0.8-1.8,1.8-1.8c1,0,1.8,0.8,1.8,1.8v8c0,1.2,1,2.2,2.2,2.2
		c1.2,0,2.2-1,2.2-2.2v-2.4h15.6V7.4H23.2V6.2c0-3.4-2.8-6.2-6.2-6.2c-3.4,0-6.2,2.8-6.2,6.2v8C10.7,15.5,11.7,16.5,12.9,16.5z"/>
	<rect x="13.3" y="38.5" class="st0" width="5.7" height="5.7"/>
	<rect x="24.4" y="38.5" class="st0" width="5.7" height="5.7"/>
	<rect x="35.6" y="38.5" class="st0" width="5.7" height="5.7"/>
	<rect x="46.8" y="38.5" class="st0" width="5.7" height="5.7"/>
	<rect x="13.3" y="51.2" class="st0" width="5.7" height="5.7"/>
	<rect x="24.4" y="51.2" class="st0" width="5.7" height="5.7"/>
	<rect x="35.6" y="51.2" class="st0" width="5.7" height="5.7"/>
	<rect x="46.8" y="51.2" class="st0" width="5.7" height="5.7"/>
</g>
</svg>
